# xmcd
#
# Track frame offsets: 
#        150
#        19443
#        31700
#        47420
#        72800
#        96768
#        125208
#        141405
#        165458
#        184925
#        206325
#
# Disc length: 2938 seconds
#
# Revision: 0
# Processed by: cddbd v1.5.1PL0 Copyright (c) Steve Scherf et al.
# Submitted via: ExactAudioCopy v0.95a5
#
DISCID=970b780b
DTITLE=Blue Lou and The Accusations - Guacamole Dip
DYEAR=1992
DGENRE=Blues
TTITLE0=Guacamole Dip
TTITLE1=Abandonment Blues
TTITLE2=Lord Have Mercy
TTITLE3=Texas Wind
TTITLE4=Build Me A Playhouse
TTITLE5=A Bible And A Gun
TTITLE6=River Mama
TTITLE7=I'll Be Lovin' You Tomorrow
TTITLE8=Natural Blues
TTITLE9=Off The Hook
TTITLE10=Till The Next Time
EXTD=
EXTT0=
EXTT1=
EXTT2=
EXTT3=
EXTT4=
EXTT5=
EXTT6=
EXTT7=
EXTT8=
EXTT9=
EXTT10=
PLAYORDER=
